<?xml version="1.0" encoding="UTF-8" standalone="no"?>
<svg version="1.1" width="512" height="512" viewBox="0 0 512 512" id="svg73" sodipodi:docname="logo-no-background.svg" inkscape:version="1.2.1 (9c6d41e410, 2022-07-14)" xmlns:inkscape="http://www.inkscape.org/namespaces/inkscape" xmlns:sodipodi="http://sodipodi.sourceforge.net/DTD/sodipodi-0.dtd" xmlns="http://www.w3.org/2000/svg" xmlns:svg="http://www.w3.org/2000/svg">
<defs id="defs77" />
<sodipodi:namedview id="namedview75" pagecolor="#ffffff" bordercolor="#000000" borderopacity="0.25" inkscape:showpageshadow="2" inkscape:pageopacity="0.0" inkscape:pagecheckerboard="0" inkscape:deskcolor="#d1d1d1" showgrid="false" inkscape:zoom="0.428" inkscape:cx="238.31776" inkscape:cy="193.92523" inkscape:window-width="1360" inkscape:window-height="715" inkscape:window-x="-8" inkscape:window-y="-8" inkscape:window-maximized="1" inkscape:current-layer="svg73" />
<g id="g71" transform="matrix(0.8192,0,0,0.8192,-153.6,0)">
<svg viewBox="0 0 512 320" preserveAspectRatio="xMidYMid" height="625" width="1000" version="1.1" id="svg69">
<g id="tight-bounds">
<svg viewBox="0 0 512 320" height="320" width="512" version="1.1" id="svg64">
<g id="g4">
<svg version="1.1" id="svg2" width="100%" height="100%" />
</g>
<g id="g60">
<svg viewBox="0 0 512 320" height="320" width="512" version="1.1" id="svg58">
<g id="g8">
<path d="M 96,320 V 0 h 320 v 320 z" fill="#4d7e3e" fill-rule="nonzero" stroke="none" stroke-width="1" stroke-linecap="butt" stroke-linejoin="miter" stroke-miterlimit="10" stroke-dasharray="none" stroke-dashoffset="0" id="path6" />
</g>
<g transform="translate(140.8,99.513094)" id="g56">
<svg viewBox="0 0 230.4 120.97381" height="120.97381" width="230.39999" version="1.1" id="svg54">
<g id="g52">
<svg viewBox="0 0 230.4 120.97381" height="120.97381" width="230.39999" version="1.1" id="svg50">
<g id="g48">
<svg viewBox="0 0 377.35223 198.13254" height="120.97381" width="230.39999" version="1.1" id="svg46">
<g transform="translate(146.95223,63.224639)" id="g25">
<svg viewBox="0 0 230.4 71.683264" height="71.683266" width="230.39999" version="1.1" id="svg23">
<g id="g21">
<svg viewBox="0 0 230.4 71.683264" height="71.683266" width="230.39999" version="1.1" id="svg19">
<g id="g17">
<svg viewBox="0 0 230.4 71.683264" height="71.683266" width="230.39999" version="1.1" id="svg15">
<g id="g13">
<svg width="230.39999" viewBox="1.76 -37.5 153.16 47.66" height="71.683266" version="1.1" id="svg11">
<path d="m 22.02,0 h -6.96 q -0.29,-0.61 -0.58,-2.05 v 0 Q 12.62,0.49 9.45,0.49 v 0 q -3.32,0 -5.51,-2.2 -2.18,-2.2 -2.18,-5.69 v 0 q 0,-4.15 2.65,-6.42 2.65,-2.27 7.63,-2.32 v 0 h 2.1 v -2.12 q 0,-1.78 -0.61,-2.52 -0.61,-0.73 -1.79,-0.73 v 0 q -2.58,0 -2.58,3.03 v 0 H 2.25 q 0,-3.66 2.74,-6.04 2.75,-2.38 6.95,-2.38 v 0 q 4.34,0 6.72,2.25 2.38,2.26 2.38,6.46 v 0 12.43 q 0.05,3.42 0.98,5.34 v 0 z M 10.99,-4.93 v 0 q 1.14,0 1.95,-0.47 0.81,-0.46 1.2,-1.09 v 0 -5.5 h -1.66 q -1.76,0 -2.78,1.13 -1.01,1.12 -1.01,3 v 0 q 0,2.93 2.3,2.93 z m 28.17,-21.66 -0.08,6.84 -2.29,-0.2 q -2.83,0 -3.83,2.49 v 0 V 0 h -6.94 v -26.42 h 6.52 l 0.2,2.86 q 1.63,-3.34 4.51,-3.34 v 0 q 1.18,0 1.91,0.31 z M 56.22,0 51.39,-10.18 49.53,-8.11 V 0 h -6.91 v -37.5 h 6.91 v 20.26 l 0.86,-1.27 4.78,-7.91 H 63.4 L 55.73,-15.53 64.13,0 Z M 81.9,-9.33 v 0 q 0,-2.17 -1.11,-3.28 -1.11,-1.11 -4.04,-2.31 v 0 q -5.35,-2.02 -7.69,-4.75 -2.34,-2.72 -2.34,-6.43 v 0 q 0,-4.49 3.18,-7.21 3.19,-2.73 8.1,-2.73 v 0 q 3.27,0 5.83,1.38 2.56,1.38 3.94,3.9 1.38,2.51 1.38,5.71 v 0 H 82 q 0,-2.49 -1.06,-3.8 -1.06,-1.3 -3.07,-1.3 v 0 q -1.88,0 -2.93,1.11 -1.05,1.11 -1.05,2.99 v 0 q 0,1.47 1.18,2.65 1.17,1.18 4.15,2.45 v 0 q 5.2,1.88 7.55,4.62 2.36,2.73 2.36,6.95 v 0 q 0,4.64 -2.96,7.26 -2.95,2.61 -8.03,2.61 v 0 q -3.44,0 -6.27,-1.42 -2.83,-1.41 -4.43,-4.05 -1.6,-2.64 -1.6,-6.23 v 0 h 7.2 q 0,3.08 1.2,4.47 1.19,1.39 3.9,1.39 v 0 q 3.76,0 3.76,-3.98 z m 32.23,-5.07 v 2.02 q 0,6.23 -2.14,9.55 -2.14,3.32 -6.36,3.32 v 0 q -3.22,0 -5.18,-2.61 v 0 12.28 h -6.91 v -36.58 h 6.4 l 0.25,2.42 q 1.97,-2.9 5.39,-2.9 v 0 q 4.22,0 6.36,3.07 2.14,3.08 2.19,9.43 z m -6.89,2.02 v -1.73 q 0,-3.83 -0.84,-5.42 -0.84,-1.59 -2.85,-1.59 v 0 q -2.12,0 -3.1,1.78 v 0 12.38 q 0.93,1.71 3.15,1.71 v 0 q 2.05,0 2.85,-1.73 0.79,-1.74 0.79,-5.4 z m 10.25,0 v -1.68 q 0,-6.01 2.83,-9.43 2.84,-3.41 7.84,-3.41 v 0 q 5.06,0 7.89,3.41 2.83,3.42 2.83,9.48 v 0 1.68 q 0,6.03 -2.81,9.42 -2.81,3.4 -7.86,3.4 v 0 q -5.08,0 -7.9,-3.41 -2.82,-3.4 -2.82,-9.46 z m 6.94,-1.68 v 1.73 q 0,7.08 3.78,7.08 v 0 q 3.49,0 3.76,-5.91 v 0 l 0.02,-2.9 q 0,-3.62 -1,-5.36 -1,-1.75 -2.83,-1.75 v 0 q -1.76,0 -2.75,1.75 -0.98,1.74 -0.98,5.36 z m 19.87,-18.85 h 6.91 v 6.49 h 3.54 v 5.2 h -3.54 v 13.11 q 0,1.57 0.42,2.15 0.43,0.59 1.65,0.59 v 0 q 1,0 1.64,-0.17 v 0 l -0.05,5.37 q -1.76,0.66 -3.81,0.66 v 0 q -6.69,0 -6.76,-7.67 v 0 -14.04 h -3.06 v -5.2 h 3.06 z" opacity="1" fill="white" class="undefined-text-0" id="text-0" />
</svg>
</g>
</svg>
</g>
</svg>
</g>
</svg>
</g>
<g id="g44">
<svg viewBox="0 0 136.49192 198.13254" height="198.13254" width="136.49193" version="1.1" id="svg42">
<g id="g40">
<svg version="1.1" x="0" y="0" viewBox="33.435001 23.608 38.940998 56.527" enable-background="new 0 0 100 100" xml:space="preserve" height="198.13254" width="136.49193" class="icon-icon-0" id="icon-0"><g fill="white" id="g37"><g fill="white" id="g35"><path fill="white" d="m 55.876,23.608 h -5.928 c -2.481,0 -4.5,2.019 -4.5,4.5 0,2.481 2.019,4.5 4.5,4.5 0.828,0 1.5,-0.671 1.5,-1.5 0,-0.829 -0.672,-1.5 -1.5,-1.5 -0.827,0 -1.5,-0.673 -1.5,-1.5 0,-0.827 0.673,-1.5 1.5,-1.5 h 5.928 c 7.444,0 13.5,6.056 13.5,13.5 v 2.766 c 0,7.444 -6.056,13.5 -13.5,13.5 -0.828,0 -1.5,0.671 -1.5,1.5 0,0.829 0.672,1.5 1.5,1.5 9.098,0 16.5,-7.402 16.5,-16.5 v -2.766 c 0,-9.098 -7.402,-16.5 -16.5,-16.5 z" id="path27" /><path fill="white" d="m 49.948,56.374 c -0.827,0 -1.5,-0.673 -1.5,-1.5 0,-0.827 0.673,-1.5 1.5,-1.5 h 5.928 c 5.79,0 10.5,-4.71 10.5,-10.5 v -2.766 c 0,-5.79 -4.71,-10.5 -10.5,-10.5 -0.828,0 -1.5,0.671 -1.5,1.5 0,0.829 0.672,1.5 1.5,1.5 4.136,0 7.5,3.364 7.5,7.5 v 2.766 c 0,4.136 -3.364,7.5 -7.5,7.5 h -5.928 c -2.481,0 -4.5,2.019 -4.5,4.5 0,2.481 2.019,4.5 4.5,4.5 0.828,0 1.5,-0.671 1.5,-1.5 0,-0.829 -0.672,-1.5 -1.5,-1.5 z" id="path29" /><path fill="white" d="m 37.935,23.608 c -2.378,0 -4.311,1.859 -4.47,4.197 -0.02,0.098 -0.03,0.199 -0.03,0.303 v 47.527 c 0,0.104 0.011,0.205 0.03,0.303 0.159,2.338 2.092,4.197 4.47,4.197 2.481,0 4.5,-2.019 4.5,-4.5 0,-0.829 -0.672,-1.5 -1.5,-1.5 -0.828,0 -1.5,0.671 -1.5,1.5 0,0.827 -0.673,1.5 -1.5,1.5 -0.827,0 -1.5,-0.673 -1.5,-1.5 V 28.108 c 0,-0.827 0.673,-1.5 1.5,-1.5 0.827,0 1.5,0.673 1.5,1.5 0,0.829 0.672,1.5 1.5,1.5 0.828,0 1.5,-0.671 1.5,-1.5 0,-2.481 -2.019,-4.5 -4.5,-4.5 z" id="path31" /><path fill="white" d="m 40.935,32.608 c -0.828,0 -1.5,0.671 -1.5,1.5 v 35.527 c 0,0.829 0.672,1.5 1.5,1.5 0.828,0 1.5,-0.671 1.5,-1.5 V 34.108 c 0,-0.828 -0.672,-1.5 -1.5,-1.5 z" id="path33" /></g></g></svg>
</g>
</svg>
</g>
</svg>
</g>
</svg>
</g>
</svg>
</g>
</svg>
</g>
<defs id="defs62" />
</svg>
<rect width="512" height="320" fill="none" stroke="none" visibility="hidden" id="rect66" x="0" y="0" />
</g>
</svg>
</g>
</svg>
